PathFileType	4	(X/Y/Z)	D:\TRACE\spot_10-12-23\spot_arm_body_motion_3_10-v60.trc
DataRate	CameraRate	NumFrames	NumMarkers	Units	OrigDataRate	OrigDataStartFrame	OrigNumFrames
100.00	100.00	      35	9	mm	100.00	1751	      7000
Frame#	Time	front left toe			Front right toe			aft left toe			aft right toe			Arm			FL body			FR body			AL Body			AR Body			
		X1	Y1	Z1	X2	Y2	Z2	X3	Y3	Z3	X4	Y4	Z4	X5	Y5	Z5	X6	Y6	Z6	X7	Y7	Z7	X8	Y8	Z8	X9	Y9	Z9	

1751	17.500	-185.00623	27.64236	-397.06708	234.28972	41.90778	-455.43509	-173.16646	8.55735	149.01955	213.13838	15.53321	129.26482	69.10378	855.39789	-708.43561	-108.75492	625.77545	-486.63702	43.72743	631.10492	-487.29559	-107.01910	557.20483	395.11740	43.33144	555.79340	396.77530	
1752	17.510	-184.85907	27.65580	-397.10001	234.49304	41.96176	-455.57672	-172.95839	8.69938	148.86331	213.36014	15.20650	128.98479	69.88359	855.23834	-708.65503	-108.61678	626.61304	-487.65561	43.88190	631.45990	-487.60403	-106.88559	558.58893	394.00156	43.34550	557.24066	395.45920	
1753	17.520	-184.62758	27.66830	-397.20523	234.48714	41.93592	-455.73322	-172.86246	8.88318	148.70009	213.53578	15.24284	129.01231	70.54513	855.11224	-708.84387	-108.86456	627.35651	-488.65240	43.63320	632.39343	-489.50668	-106.99854	560.14410	392.97296	43.15973	558.56372	394.50214	
1754	17.530	-184.36360	27.53357	-397.38391	234.61327	41.94146	-455.79068	-172.71288	8.82719	148.50644	213.65086	15.14474	128.94398	70.98521	854.96112	-709.06348	-108.33019	627.97980	-489.84631	43.92279	633.03156	-491.01596	-106.76943	561.31213	391.85687	43.22713	559.84937	393.36447	
1755	17.540	-184.08406	27.42764	-397.61578	234.94930	41.66933	-455.65982	-172.57573	8.83694	148.39215	213.69859	15.04552	128.89043	71.19227	854.82928	-709.27588	-107.70217	628.51849	-490.79404	44.45943	633.54144	-491.62796	-107.14521	562.58441	390.71307	43.05964	561.25067	392.46735	
1756	17.550	-184.53410	28.18225	-397.83414	235.19559	41.61098	-455.59662	-172.35295	8.93542	148.27882	213.93060	15.01072	128.84879	71.60391	854.65656	-709.48895	-106.88344	629.04651	-492.02350	45.30906	634.22418	-492.75674	-107.26289	563.90582	389.72656	43.15982	562.14648	391.59409	
1757	17.560	-184.16386	28.22058	-398.16455	235.32568	41.30257	-455.74237	-172.23352	9.01885	148.08835	214.13068	14.99530	128.84781	72.09437	854.55585	-709.79028	-106.26507	629.97412	-493.26483	46.28684	634.31207	-493.31616	-107.12993	565.24744	388.55646	43.25723	563.54407	390.75885	
1758	17.570	-183.94322	28.29113	-398.31940	235.63872	41.11269	-455.59528	-172.08258	9.08838	147.93810	214.35576	14.90974	128.84976	72.06689	854.62939	-709.90875	-105.14288	630.50098	-494.07706	47.26999	635.08118	-494.47610	-107.38309	566.51154	387.55917	43.11124	564.72742	389.85486	
1759	17.580	-183.72842	28.34357	-398.41995	235.92281	41.01659	-455.53171	-171.96106	9.13037	147.69931	214.28664	14.60715	128.52765	72.13547	854.65906	-710.04498	-104.00977	631.16620	-495.33508	48.16311	635.65118	-495.55753	-106.82400	567.83344	386.38190	43.24968	565.88342	388.97348	
1760	17.590	-183.43477	28.24878	-398.54709	236.19569	40.88015	-455.48132	-171.76027	9.05003	147.45625	214.39517	14.57223	128.49037	72.32850	854.45050	-710.31244	-102.87481	631.52527	-496.36557	49.27475	636.20758	-496.43640	-106.70216	568.96588	385.66095	43.46464	566.96649	387.87775	
1761	17.600	-183.14093	28.62965	-398.84106	236.58408	40.98271	-455.88199	-171.74469	9.25078	146.92235	214.41141	14.69882	128.11908	71.95715	854.22064	-710.89063	-101.73878	632.16772	-497.36328	50.49171	636.39508	-497.61084	-106.40508	570.09894	384.57779	43.64678	568.05920	387.10651	
1762	17.610	-182.73148	28.55829	-398.87292	237.42731	40.92171	-455.46573	-171.53699	9.34299	146.98959	214.39793	14.85791	128.00801	70.94868	854.12531	-711.93958	-100.29525	632.06573	-498.26675	51.86451	636.25171	-498.18622	-106.05264	571.56360	383.85211	44.33523	569.22278	386.53970	
1763	17.620	-182.57660	28.49790	-398.90897	237.73790	40.47111	-455.69232	-171.49773	9.46922	146.90817	214.89471	15.26299	128.42184	69.39403	853.86761	-712.93549	-98.86712	631.82434	-499.19681	53.33847	635.67511	-498.81439	-105.37657	572.43677	382.83969	44.77237	569.89001	386.06827	
1764	17.630	-181.82637	28.18067	-399.05057	240.48511	41.64166	-454.96155	-171.37585	9.41563	146.74191	214.72536	14.85594	128.26843	67.29636	853.80261	-713.36407	-97.55901	631.50146	-500.01611	54.81654	635.20465	-499.50604	-105.02717	573.40051	382.01764	45.17923	570.71606	385.23138	
1765	17.640	-181.69188	28.12630	-399.11127	240.84142	41.50157	-454.81580	-171.24648	9.43303	146.70581	215.00505	14.74846	128.09203	65.07565	853.54846	-713.92395	-96.54356	631.03387	-500.61478	55.80712	634.61035	-500.25955	-104.08369	573.88654	381.73495	46.45836	571.04584	384.93152	
1766	17.650	-181.67987	28.07477	-399.06570	240.89746	41.48639	-454.89343	-171.02686	9.50035	146.73120	215.38469	14.60761	128.13277	63.23326	853.32281	-713.96216	-95.49300	630.43188	-501.11804	56.56674	634.24060	-500.71542	-102.72599	574.45972	381.11685	47.42480	571.41803	383.86121	
1767	17.660	-181.71877	28.01509	-399.00555	239.59270	41.41475	-455.24976	-170.72289	9.60559	146.75516	215.82898	14.41372	127.98447	62.25638	853.21875	-713.85938	-95.10980	629.87567	-501.59433	57.15632	633.61957	-501.71115	-101.12900	574.59790	380.75592	49.33775	571.66827	383.80093	
1768	17.670	-181.73059	28.02141	-398.86533	239.40742	41.32778	-455.62726	-170.29443	9.90844	146.79680	216.12555	14.40161	127.89340	62.14537	853.08594	-713.49536	-94.82753	629.33783	-501.99036	57.31998	632.92114	-502.09518	-99.27576	574.80353	380.43936	51.17683	571.68494	383.13052	
1769	17.680	-181.74788	28.00582	-398.77750	239.30788	41.38474	-455.72858	-169.91519	10.17806	146.95009	216.41425	14.15244	127.79376	62.64790	852.74780	-712.74823	-94.75723	628.93915	-502.24823	57.74749	632.38879	-502.51102	-97.12284	574.75928	380.30157	53.06434	571.95032	382.32532	
1770	17.690	-181.76965	27.94389	-398.64215	239.33070	41.49860	-455.82651	-169.76535	10.36677	147.06088	216.69519	13.92537	127.63818	63.65190	852.42859	-712.23053	-94.44993	628.05701	-502.50958	57.87015	631.45959	-502.66812	-95.25702	574.99615	380.16937	54.91331	572.03992	382.36752	
1771	17.700	-181.71654	27.82427	-398.54440	239.33246	41.54396	-455.87436	-169.59511	10.54077	147.12172	216.95461	13.78068	127.59761	64.78475	852.12958	-711.22870	-94.15112	627.49182	-502.46060	58.06379	631.39734	-503.70184	-93.63428	575.00214	380.27496	56.44946	572.10846	381.64560	
1772	17.710	-181.65627	27.87941	-398.46292	239.41167	41.49025	-455.89017	-169.40598	10.63561	147.19958	217.14880	13.76011	127.54465	65.79632	852.00958	-710.75256	-93.62493	627.12329	-502.61319	58.65160	630.92456	-503.61615	-91.90762	574.79266	380.12238	58.35411	571.96863	381.57211	
1773	17.720	-181.51143	28.09049	-398.45923	239.72130	41.55578	-455.61771	-169.32610	10.67947	147.22276	217.20778	13.70735	127.59789	66.83508	851.77386	-710.01221	-92.92979	627.03400	-502.70853	59.62080	630.51587	-503.60193	-90.52885	574.66388	380.24289	59.56774	571.78009	381.44653	
1774	17.730	-181.33234	28.30105	-398.54480	241.25386	41.63235	-455.27020	-169.35764	10.62287	147.19067	217.27843	13.66505	127.61317	67.20496	851.67719	-709.71002	-91.81021	627.00836	-502.61115	60.68338	630.15698	-503.62494	-89.54496	574.41107	380.23444	60.57941	571.25610	381.42151	
1775	17.740	-180.99223	28.45972	-398.54251	241.71086	41.41939	-455.13531	-169.39317	10.50143	147.20338	217.24319	13.61966	127.70193	67.38519	851.59814	-709.59448	-90.40752	627.07397	-502.55151	62.04450	629.75574	-503.01593	-88.90292	574.00726	380.32874	61.23444	570.69312	381.60297	
1776	17.750	-181.29471	29.01006	-398.59885	240.50377	40.90685	-455.53702	-169.41066	10.37976	147.15295	217.17950	13.57474	127.77645	67.17363	851.59827	-709.60498	-88.88779	626.96039	-502.31418	63.35850	630.43866	-503.57901	-88.13696	573.40820	380.42490	61.87777	570.28992	381.81857	
1777	17.760	-181.05026	29.13267	-398.65051	240.75612	40.86103	-455.36215	-169.44908	10.33843	147.15396	217.17036	13.54689	127.88347	67.04440	851.57794	-709.65002	-87.00368	626.87476	-501.94623	65.16930	630.12933	-503.01025	-87.45251	573.02692	380.77148	62.69163	569.78827	382.36874	
1778	17.770	-180.72511	29.19992	-398.69287	241.03178	40.78665	-455.18884	-169.45641	10.38079	147.16086	217.24693	13.47674	128.02655	66.57101	851.65417	-709.59875	-85.30953	626.86389	-501.79297	67.02708	629.79065	-502.15915	-86.76385	572.77057	381.00662	63.36538	569.30188	382.75397	
1779	17.780	-180.23761	28.84500	-398.56204	241.27666	40.70432	-455.08386	-169.35480	10.44289	147.14584	217.39478	13.41421	128.13445	66.02007	851.73352	-709.74951	-83.73321	626.56586	-501.23221	68.18599	629.75238	-501.74780	-86.08097	572.41260	381.29398	64.63806	568.91333	383.67355	
1780	17.790	-179.91222	29.03561	-398.70923	241.46497	40.66162	-454.99036	-169.12791	10.50854	147.23866	217.62743	13.34600	128.21634	65.19017	851.87488	-710.13440	-82.40038	626.60443	-500.80063	70.11546	629.54938	-500.99728	-85.12067	571.96503	381.60922	65.01752	568.70856	384.07632	
1781	17.800	-179.80777	29.11556	-398.67267	241.63535	40.57672	-454.93710	-168.84161	10.60112	147.27057	217.82648	13.33954	128.34415	64.81535	851.88721	-710.25281	-80.87889	626.41486	-500.20493	71.55754	629.34119	-500.44620	-83.84779	571.69043	382.58768	66.40324	568.33307	384.80859	
1782	17.810	-179.68810	29.15263	-398.59390	241.63034	40.54042	-454.90927	-168.57286	10.71327	147.35730	218.03284	13.31104	128.36423	64.69890	851.90558	-710.34747	-79.98711	626.28491	-499.73352	72.72758	629.30591	-499.86868	-82.65824	571.35217	382.95804	67.73244	567.88147	385.17044	
1783	17.820	-179.67641	29.17075	-398.53836	241.69580	40.57082	-454.89554	-168.41125	10.85260	147.39801	218.18352	13.29725	128.43695	64.66502	851.97498	-710.24945	-78.38200	625.86847	-498.92883	73.78557	629.12610	-499.14258	-81.09566	570.85925	383.73425	69.05054	567.45032	386.01056	
1784	17.830	-180.58986	29.93055	-398.57074	241.64891	40.60143	-454.84607	-168.32576	10.99706	147.41364	218.22508	13.18355	128.42036	65.06126	851.97491	-710.34338	-77.29838	625.57263	-498.23492	74.22507	629.36481	-499.09668	-79.66087	570.32196	384.30231	70.34525	567.09454	386.42694	
1785	17.840	-180.26546	29.83450	-398.53787	241.70161	40.53889	-454.76321	-168.22020	11.14704	147.42644	218.31528	13.06043	128.51558	65.59773	851.91217	-710.28741	-76.23972	625.30676	-497.50082	76.34396	628.73694	-497.99011	-78.21629	569.62769	385.03998	72.06628	566.46991	387.52875	
